<svg width="96" height="96" viewBox="0 0 96 96" fill="none" xmlns="http://www.w3.org/2000/svg">
<path d="M28.2083 55.5899C28.0277 55.4094 28.0277 55.2288 28.2083 55.0483C28.5693 54.6872 29.0208 54.5518 29.5624 54.642C30.1041 54.7323 30.42 54.8226 30.5103 54.9129C31.1423 55.1837 31.8419 55.793 32.6092 56.741C33.3765 57.6889 33.9859 58.3434 34.4374 58.7045C36.6041 60.5101 38.8158 60.6455 41.0727 59.1108C41.2533 58.4788 41.5467 57.9372 41.9529 57.4857C42.3591 57.0343 42.7429 56.7184 43.104 56.5378C43.4652 56.3572 44.0971 56.0864 44.9999 55.7253C42.0206 55.4545 39.6057 54.9353 37.7551 54.168C35.9044 53.4006 34.4373 52.4302 33.354 51.2565C31.9095 49.6316 31.0293 47.51 30.7133 44.892C30.3973 42.2739 30.6004 39.8816 31.3227 37.7149C31.8644 36.3607 32.6318 35.1421 33.6247 34.0587C32.9025 31.8017 33.0379 29.2288 34.031 26.3399C36.9199 26.5205 39.5379 27.5135 41.8852 29.3191C46.399 28.1455 51.0935 28.1003 55.9684 29.1837C56.6003 28.7323 57.5709 28.1681 58.8798 27.4909C60.1889 26.8138 61.8365 26.4301 63.8226 26.3398C64.1837 27.3329 64.432 28.5065 64.5674 29.8607C64.7028 31.2148 64.6351 32.4787 64.3643 33.6523C66.4406 35.819 67.524 38.7079 67.6142 42.319C67.6142 45.2079 67.1178 47.6002 66.1247 49.4961C65.1317 51.3919 63.3712 52.9718 60.8435 54.2356C59.1282 55.0481 56.8712 55.5446 54.0726 55.7252C55.3366 56.3571 56.2619 57.0116 56.8487 57.6887C57.4356 58.3658 57.8192 59.4265 57.9999 60.871V65.1367L58.1352 69.2669C58.406 69.7183 58.7221 70.102 59.0832 70.418C59.4443 70.734 59.7603 70.9597 60.0311 71.0951C60.3019 71.2305 60.3922 71.4337 60.3019 71.7045C60.2116 71.9753 59.8505 72.1108 59.2186 72.1108C57.6838 72.1108 56.4651 71.5691 55.5624 70.4857C55.2915 70.0343 55.1561 69.4927 55.1561 68.8607V62.3607C55.1561 61.6385 54.9756 61.1194 54.6144 60.8034C54.2533 60.4873 53.8922 60.2843 53.5311 60.194V68.7252C53.5311 70.2599 53.7117 71.253 54.0728 71.7044C54.4339 72.1558 54.6596 72.6072 54.7499 73.0585C54.8402 73.1488 54.7725 73.2165 54.5468 73.2616C54.3211 73.3067 53.9374 73.2391 53.3957 73.0585C52.2221 72.7877 51.4096 72.1783 50.9582 71.2304C50.5068 70.2825 50.2811 69.2668 50.2811 68.1835V59.7879H48.5207V68.1837C48.5207 69.267 48.2949 70.3053 47.8436 71.2983C47.2117 72.5622 46.038 73.2392 44.3228 73.3295C44.052 73.2392 43.9165 73.149 43.9165 73.0587C44.0068 72.9684 44.2777 72.5171 44.729 71.7046C44.8193 71.524 44.9322 71.1629 45.0676 70.6212C45.2031 70.0796 45.2708 69.4476 45.2708 68.7254V60.1941C44.9097 60.2844 44.5711 60.4875 44.2551 60.8035C43.9391 61.1196 43.7811 61.6386 43.7811 62.3608V68.8608C43.7811 69.4927 43.6457 70.0344 43.3749 70.4858C42.5624 71.5692 41.3436 72.1109 39.7187 72.1109C39.0868 72.1109 38.7256 71.9755 38.6354 71.7047C38.545 71.5241 38.5676 71.3661 38.7031 71.2307C38.8386 71.0952 39.0417 70.9372 39.3125 70.7567C39.5834 70.5761 39.7639 70.4406 39.8542 70.3504C40.2153 70.0796 40.4861 69.7185 40.6667 69.2671C40.9375 68.906 41.0052 67.9581 40.8698 66.4233C40.7344 64.8886 40.7118 63.8956 40.802 63.4442C38.4547 64.2567 36.0625 63.8504 33.6249 62.2254C32.9027 61.5032 32.1804 60.4649 31.4582 59.1108C30.9166 58.1177 29.8332 56.9441 28.2083 55.5899Z" fill="#000"/>
</svg>
