<svg width="96" height="96" viewBox="0 0 96 96" fill="none" xmlns="http://www.w3.org/2000/svg">
<path fill-rule="evenodd" clip-rule="evenodd" d="M67.3266 64.6618C67.3266 65.1527 66.9286 65.5507 66.4377 65.5507H59.9967C59.5058 65.5507 59.1078 65.1527 59.1078 64.6618V51.5523C59.1078 47.7143 57.6495 45.5695 54.6117 45.5695C51.307 45.5695 49.5805 47.8015 49.5805 51.5523V64.6618C49.5805 65.1527 49.1825 65.5507 48.6916 65.5507H42.5488C42.0579 65.5507 41.6599 65.1527 41.6599 64.6618V39.7729C41.6599 39.282 42.0579 38.884 42.5488 38.884H48.6916C49.1825 38.884 49.5805 39.282 49.5805 39.7729V42.476C49.5805 42.476 51.962 38.0693 57.6208 38.0693C63.2771 38.0693 67.3266 41.5233 67.3266 48.667V64.6618ZM33.544 36.6423C30.8461 36.6423 28.6599 34.439 28.6599 31.7216C28.6599 29.0041 30.8461 26.8008 33.544 26.8008C36.2419 26.8008 38.4268 29.0041 38.4268 31.7216C38.4268 34.439 36.2419 36.6423 33.544 36.6423ZM29.4542 64.6618C29.4542 65.1527 29.8522 65.5507 30.3431 65.5507H36.8244C37.3154 65.5507 37.7133 65.1527 37.7133 64.6618V39.7729C37.7133 39.282 37.3154 38.884 36.8244 38.884H30.3431C29.8522 38.884 29.4542 39.282 29.4542 39.7729V64.6618Z" fill="#000"/>
</svg>
