<svg width="96" height="96" viewBox="0 0 96 96" fill="none" xmlns="http://www.w3.org/2000/svg">
<path d="M59.5785 29.6817C59.6896 29.5562 59.8493 29.4844 60.0169 29.4844H64.746C65.2497 29.4844 65.5185 30.0781 65.1861 30.4566L52.2366 45.201L67.653 65.582C67.9448 65.9678 67.6696 66.521 67.1858 66.521H55.9974C55.815 66.521 55.6429 66.436 55.5321 66.2911L45.7996 53.565L34.6313 66.3212C34.5201 66.4482 34.3594 66.521 34.1906 66.521H29.4555C28.953 66.521 28.6838 65.93 29.0135 65.5509L42.7929 49.711L28.0682 30.4255C27.7739 30.0401 28.0488 29.4844 28.5337 29.4844H40.0279C40.2114 29.4844 40.3843 29.5704 40.495 29.7168L49.2709 41.3197L59.5785 29.6817Z" fill="#000"/>
</svg>
